<svg xmlns="http://www.w3.org/2000/svg" version="1.0" preserveAspectRatio="xMidYMid meet" viewBox="64 14 72 172">
<g transform="translate(0.000000,200.000000) scale(0.100000,-0.100000)" fill="#808080">
<path d="M916 1801 c-48 -48 -57 -63 -54 -87 2 -24 8 -30 32 -32 22 -3 37 5 67 34 l39 38 39 -38 c30 -29 45 -37 67 -34 24 2 30 8 32 32 3 24 -6 39 -54 87 -41 42 -66 59 -84 59 -18 0 -43 -17 -84 -59z"/>
<path d="M860 1518 c-77 -30 -169 -123 -198 -201 -20 -54 -22 -76 -22 -317 0 -314 5 -337 104 -436 78 -78 143 -104 256 -104 113 0 178 26 256 104 99 99 104 122 104 436 0 241 -2 263 -22 317 -29 80 -121 172 -201 201 -78 30 -200 29 -277 0z m258 -94 c59 -29 106 -79 136 -143 19 -43 21 -63 21 -281 0 -218 -2 -238 -21 -281 -50 -108 -142 -169 -253 -169 -114 0 -204 59 -253 165 -22 48 -23 61 -23 285 0 224 1 237 23 285 49 106 139 165 253 165 50 0 77 -6 117 -26z"/>
<path d="M964 1307 c-2 -7 -4 -52 -2 -98 l3 -84 35 0 35 0 0 95 0 95 -33 3 c-21 2 -34 -2 -38 -11z"/>
<path d="M867 313 c-4 -3 -7 -18 -7 -32 0 -36 105 -141 141 -141 17 0 43 18 83 59 48 48 57 63 54 87 -2 24 -8 30 -32 32 -22 3 -37 -5 -67 -34 l-39 -38 -38 37 c-35 35 -78 48 -95 30z"/>
</g>
</svg>